<?xml version="1.0" encoding="UTF-8"?><!DOCTYPE svg PUBLIC "-//W3C//DTD SVG 1.0//EN" "http://www.w3.org/TR/2001/REC-SVG-20010904/DTD/svg10.dtd" []><svg xmlns="http://www.w3.org/2000/svg" xmlns:xlink="http://www.w3.org/1999/xlink" height="94" preserveAspectRatio="xMidYMid meet" version="1.0" viewBox="0.0 0.0 307.8 93.6" width="308" zoomAndPan="magnify"><g id="change1_1"><path d="M258.8241,89.5442c0,0-57.5492,4.2896-93.9732,4.0832c-30.0572-0.1703-81.6167-0.7864-81.6167-0.7864 c-19.2238-0.6956-47.8712-2.3673-61.0003-6.9482C0.3519,78.2579,0,64.6139,0,49.1329v-0.0001c0.6721-10.774,0-22.2403,6.11-31.8212 C17.1159,0.054,40.8862,0,73.8511,0c0,0,48.3309,0.914,79.9167,0.2835c30.2687-0.6042,86.7044-0.0547,86.7044-0.0547 c29.0006,0.5889,39.8872,2.8078,55.4573,12.4599c11.8911,7.3714,12.3259,24.4833,11.6062,36.4441v0.0001 C307.5356,73.9025,304.1668,85.6023,258.8241,89.5442z" fill="#CECDCD"/></g></svg>