<?xml version="1.0" encoding="UTF-8"?><!DOCTYPE svg PUBLIC "-//W3C//DTD SVG 1.0//EN" "http://www.w3.org/TR/2001/REC-SVG-20010904/DTD/svg10.dtd" []><svg xmlns="http://www.w3.org/2000/svg" xmlns:xlink="http://www.w3.org/1999/xlink" height="191" preserveAspectRatio="xMidYMid meet" version="1.0" viewBox="-0.0 -0.0 194.5 191.4" width="194" zoomAndPan="magnify"><g><g id="change1_1"><path d="M191.5923,95.142c-0.0261,19.3076-4.4042,38.7798-14.8429,55.2016 c-9.5441,15.0145-23.7316,26.5005-40.1639,33.2206c-9.2612,3.7874-19.0023,5.8044-28.959,6.6081 c-10.3387,0.8345-20.7675,0.4577-30.8965-1.8872c-19.3613-4.4821-36.6207-15.6622-49.2809-30.8985 C14.4303,141.719,6.3794,122.2134,3.7931,102.0564C2.4468,91.5642,2.575,80.9079,4.829,70.5475 C6.91,60.9826,10.7336,51.833,16.066,43.625C26.6458,27.3402,42.7657,15.2371,60.6957,8.0786 c19.4615-7.7699,41.861-9.3647,62.3083-4.8446c18.3148,4.0487,35.0058,13.7661,47.0308,28.2306 c11.6895,14.061,18.4858,31.6707,20.7104,49.7286C191.3153,85.8207,191.5859,90.4801,191.5923,95.142 c-0.0003-0.2361,2.8982-0.497,2.8978-0.7765c-0.0261-19.0628-4.6917-38.2644-14.8979-54.4867 c-10.0185-15.9239-25.128-28.0432-42.8648-34.3287c-19.9279-7.062-42.2297-7.0473-62.5961-1.8633 c-9.7892,2.4917-19.2685,5.8555-28.135,10.7415c-8.6783,4.7823-16.6742,10.8363-23.4654,18.0629 C8.5503,47.3682,0.5532,66.8428,0.0326,87.253c-0.5393,21.145,5.6251,42.7408,16.9736,60.5575 c10.8729,17.0699,26.8591,30.8255,45.8919,37.9541c19.3288,7.2395,41.0455,7.0838,60.8995,2.0311 c9.1257-2.3224,17.9628-5.4349,26.1768-10.0929c7.8462-4.4493,14.9911-10.1147,21.0471-16.8035 c12.8018-14.1394,20.1205-32.3202,22.514-51.1198c0.6508-5.1118,0.9474-10.262,0.9544-15.414 C194.4897,94.6043,191.5926,94.8599,191.5923,95.142z" fill="#CECDCD"/></g></g></svg>