<?xml version="1.0" encoding="UTF-8"?><!DOCTYPE svg PUBLIC "-//W3C//DTD SVG 1.0//EN" "http://www.w3.org/TR/2001/REC-SVG-20010904/DTD/svg10.dtd" []><svg xmlns="http://www.w3.org/2000/svg" xmlns:xlink="http://www.w3.org/1999/xlink" height="137" preserveAspectRatio="xMidYMid meet" version="1.0" viewBox="-1.6 9.9 499.2 136.8" width="499" zoomAndPan="magnify"><g id="change1_1"><path d="M449.6,24.4c0,0-390.8-5.1-416.1,0.6s-18.1,46.2-18.4,73c-0.3,26.3-16.7,38.1,13.4,42.6 c30.1,4.5,420.4,6.1,435.8,0.2c23.6-9.1,15.3-67.6,17-88.2S475.9,25,449.6,24.4z" fill="#FFE6E3"/></g><g id="change2_1"><path d="M497.2,25.4c-0.4-1.7-1.2-3.4-2.3-4.7c-1.1-1.3-2.5-2.3-4-3.1c-2.9-1.6-5.9-2.4-8.9-3 c-1.5-0.3-3-0.6-4.5-0.8c-1.5-0.2-3-0.3-4.5-0.5c-3-0.2-6-0.4-8.9-0.6c-3-0.2-5.9-0.3-8.9-0.4c-3-0.1-5.9-0.2-8.9-0.3l-8.9-0.3 l-8.9-0.2l-17.8-0.4l-17.8-0.3c-23.7-0.3-47.5-0.5-71.2-0.6c-47.5-0.3-95-0.1-142.5,0.4c-23.7,0.2-47.5,0.6-71.2,1 C96,11.8,84.1,12,72.3,12.4c-5.9,0.2-11.9,0.4-17.8,0.8c-3,0.2-5.9,0.4-8.9,0.7c-1.5,0.2-3,0.3-4.5,0.7l-0.6,0.2l-0.3,0.1L40,14.8 l-1,0.5c-0.2,0.1-0.4,0.2-0.5,0.2l-0.5,0.3l-1,0.6c-2.6,1.7-4.7,3.9-6.4,6.5c-1.7,2.5-2.9,5.3-3.9,8.1c-2,5.7-3,11.6-3.7,17.5 c-1.3,11.9-1.2,23.8-1.1,35.7c0.1,5.9,0.2,11.9,0,17.7c-0.4,5.8-1,12.1,0.9,18.1c1,3,2.7,5.8,5.1,7.9c1.2,1.1,2.5,1.9,3.9,2.7 l0.5,0.3l0.5,0.2c0.4,0.2,0.7,0.3,1.1,0.5c0.7,0.3,1.4,0.6,2.2,0.8c2.9,0.9,5.9,1.5,8.9,1.9c3,0.4,6,0.6,9,0.7 c1.5,0.1,3,0.1,4.5,0.1l4.5,0.1l8.9,0.1l17.8,0.2c11.9,0.1,23.7,0.3,35.6,0.4l17.8,0.1l17.8,0.1c11.9,0.1,23.7,0,35.6,0 c47.5,0,95-0.3,142.5-0.2l35.6,0l35.6-0.1c11.9,0,23.7-0.1,35.6-0.4c5.9-0.1,11.9-0.3,17.8-0.6c1.5-0.1,3-0.2,4.5-0.3 c0.8-0.1,1.5-0.1,2.3-0.2l1.1-0.2l0.6-0.1l0.6-0.1c3-0.7,5.9-2,8.4-3.9c2.5-1.9,4.5-4.4,6.1-7c1.5-2.7,2.6-5.6,3.5-8.5 c1.6-5.9,2.2-11.9,2.5-17.9c0.3-6,0.1-12,0-17.9c-0.2-5.9-0.4-11.9-0.4-17.8c0-1.5,0-2.9,0.1-4.4c0.1-1.4,0.2-2.9,0.4-4.3 c0.4-2.9,0.9-5.7,1.5-8.6c0.6-2.9,1.4-5.7,2-8.7c0.3-1.5,0.6-3,0.7-4.6C497.5,28.7,497.6,27.1,497.2,25.4z M488.4,62 c0.2,11.8,1.1,23.5,0.7,35.1c-0.3,5.8-0.8,11.7-2.5,17.2c-0.8,2.8-1.9,5.5-3.5,7.9c-1.6,2.4-3.6,4.5-6.1,5.9 c-1.2,0.8-2.5,1.3-3.9,1.8l-1,0.3c-0.3,0.1-0.7,0.2-1,0.2c-0.7,0.1-1.4,0.2-2.1,0.3c-2.9,0.3-5.8,0.5-8.7,0.6 c-5.8,0.3-11.7,0.5-17.6,0.6c-11.7,0.2-23.4,0.3-35.2,0.4c-23.4,0.1-46.9,0-70.4-0.2c-46.9-0.2-93.8-0.4-140.7-0.3 c-46.9,0-93.8,0.1-140.7-0.6c-2.9-0.1-5.9-0.2-8.8-0.5c-2.9-0.3-5.8-0.8-8.6-1.6c-1.4-0.4-2.8-0.9-4.1-1.5c-1.3-0.6-2.6-1.4-3.7-2.3 c-2.3-1.8-3.8-4.4-4.5-7.2c-0.8-2.8-1-5.7-1-8.6c0-1.5,0.1-2.9,0.2-4.4c0.1-1.5,0.2-2.9,0.3-4.4c0.1-2.9,0.1-5.9,0.1-8.8l-0.1-8.8 c-0.1-11.7-0.1-23.5,1.3-35c0.7-5.8,1.8-11.5,3.9-16.9c1-2.7,2.3-5.2,4-7.5c0.8-1.1,1.8-2.1,2.9-3l0.8-0.6l0.4-0.3l0.4-0.3L40,19 c0.3-0.2,0.6-0.3,0.9-0.4c0.3-0.1,0.6-0.3,0.9-0.4l0.4-0.1l0.5-0.1c0.7-0.1,1.4-0.2,2.1-0.3c1.4-0.2,2.9-0.3,4.3-0.4 c2.9-0.2,5.8-0.3,8.8-0.5c5.8-0.2,11.7-0.4,17.6-0.5c5.9-0.1,11.7-0.2,17.6-0.3l17.6-0.2c23.4-0.2,46.9-0.4,70.3-0.5l35.2-0.1 l35.2,0c23.5,0,46.9,0.1,70.4,0.2c23.5,0.2,46.9,0.3,70.3,0.6l35.2,0.5c11.7,0.2,23.4,0.4,35.1,0.9c1.5,0.1,2.9,0.1,4.4,0.2l4.4,0.3 c2.9,0.2,5.8,0.5,8.6,1c2.8,0.5,5.7,1.2,8.2,2.4c0.6,0.3,1.2,0.7,1.8,1c0.6,0.4,1.1,0.8,1.5,1.3c0.4,0.5,0.8,1.1,1,1.7 c0.2,0.6,0.4,1.3,0.5,1.9c0.2,1.4,0,2.8-0.1,4.2c-0.2,1.4-0.5,2.8-0.8,4.3c-0.6,2.8-1.3,5.7-1.9,8.6c-0.6,2.9-1,5.8-1.3,8.8 c-0.1,1.5-0.2,2.9-0.3,4.4C488.3,59,488.3,60.5,488.4,62z" fill="#DBA19C"/></g></svg>