<?xml version="1.0" encoding="UTF-8"?><svg xmlns="http://www.w3.org/2000/svg" xmlns:xlink="http://www.w3.org/1999/xlink" height="177.3" preserveAspectRatio="xMidYMid meet" version="1.0" viewBox="-0.3 -0.1 166.6 177.3" width="166.6" zoomAndPan="magnify"><g id="change1_1"><path d="M49.9,166c-0.4-0.3-0.9-0.6-1.3-0.9L49.9,166L49.9,166z M73.6,177c-0.9-0.1-1.8-0.2-2.7-0.3 s-1.8-0.2-2.7-0.4c-1.6-0.3-3.2-0.6-4.8-0.9c-0.8-0.2-1.6-0.4-2.4-0.7l-0.5-0.1l-0.2-0.1h-0.1l0,0l-0.6-0.2l-1.1-0.4 c-0.8-0.3-1.6-0.6-2.4-0.9c-0.7-0.3-1.4-0.7-2.1-1.1c-1.5-0.8-3-1.8-4.4-2.7l-1-0.7l0,0c-1.5-1-3-2.1-4.5-3.2s-2.7-2.3-4-3.4 s-2.8-2.4-4.2-3.6s-2.7-2.5-4.1-3.8s-2.6-2.6-4-3.9s-2.7-2.8-4-4.2l0.1,0.1c-0.6-0.7-1.2-1.4-1.9-2.2s-1.1-1.4-1.7-2.1l-3.4-4.4 c-1.1-1.5-2.3-2.9-3.4-4.4s-2.2-3.1-3.2-4.6c-2.1-3.1-3.9-6.4-5.4-9.9c-0.8-1.7-1.4-3.5-2-5.3c-0.3-0.8-0.6-1.7-0.8-2.5 s-0.5-1.8-0.8-2.7s-0.4-1.9-0.5-2.9s-0.2-1.8-0.3-2.8c-0.2-1.9-0.3-3.7-0.4-5.6s-0.2-3.5-0.3-5.3s-0.1-3.6-0.1-5.3S0,82.8,0,80.9 s0.2-3.7,0.4-5.5c0.5-3.7,0.9-7.3,1.5-11c0.3-1.8,0.7-3.6,1.2-5.3c0.5-1.7,1.1-3.4,1.8-5.1s1.3-3.2,1.9-4.8s1.5-3.4,2.3-5.1 s1.6-3.2,2.5-4.8c0.9-1.5,1.9-2.9,3-4.3c1.1-1.5,2.3-2.8,3.5-4.2s2.5-2.6,3.7-4s2.4-2.7,3.7-4c1.4-1.3,2.9-2.4,4.4-3.4 c1.6-1,3.2-1.9,4.9-2.7c1.7-0.8,3.3-1.6,5-2.4c1.7-0.8,3.4-1.5,5.1-2.2s3.3-1.4,5-2.1s3.4-1.4,5.2-2.1s3.6-1.5,5.3-2.2 s3.4-1.4,5.1-2s3.6-1.4,5.4-2c1.8-0.6,3.7-1.1,5.6-1.4c0.9-0.2,1.8-0.3,2.7-0.3c1-0.1,1.9-0.1,2.9-0.1c1.9,0,3.8,0.1,5.7,0.2 s3.7,0.4,5.6,0.8s3.7,0.8,5.5,1.3s3.6,1.1,5.3,1.8c3.5,1.3,6.9,2.8,10.2,4.6c3.3,1.8,6.4,3.9,9.4,6.2c1.5,1.2,2.9,2.4,4.3,3.6 s2.9,2.5,4.4,3.8s2.8,2.4,4.2,3.6c1.4,1.1,2.7,2.3,3.9,3.6c0.7,0.8,1.3,1.5,2,2.3s1,1.4,1.6,2.1c1.1,1.5,2.2,3,3.3,4.5 c2.2,2.9,4.3,6,6.1,9.1c0.9,1.7,1.7,3.3,2.6,5s1.6,3.3,2.4,4.9c1.6,3.2,3.1,6.5,4.2,9.8c0.3,0.8,0.5,1.7,0.7,2.5s0.4,1.8,0.5,2.7 c0.3,1.8,0.6,3.6,0.8,5.4c0.4,3.7,0.7,7.3,1,11s0.5,7.6,0.4,11.3c0,1.8-0.2,3.6-0.4,5.4c-0.2,1.9-0.5,3.8-0.8,5.6s-0.7,3.7-1.2,5.5 s-1,3.6-1.6,5.3s-1.2,3.5-2,5.2s-1.5,3.4-2.4,5c-1.7,3.3-3.7,6.5-5.9,9.4c-1.2,1.5-2.4,2.9-3.7,4.3c-1.3,1.3-2.6,2.6-4,3.7 c-0.7,0.6-1.4,1.1-2.1,1.7l-2.1,1.6c-1.4,1.1-2.8,2.2-4.3,3.3s-3,2.2-4.6,3.3s-3.2,2.1-4.9,3.1s-3.2,1.8-4.9,2.6s-3.3,1.6-4.9,2.3 s-3.6,1.5-5.4,2.1c-1.7,0.6-3.3,1.2-5.1,1.7l-0.9,0.3l-0.3,0.1c-0.9,0.3-1.8,0.6-2.7,0.9c-3.4,1.2-6.9,1.8-10.4,2.7 c-1.3,0.3-2.6,0.6-3.9,0.9c-1.2,0.2-2.4,0.4-3.7,0.5l0,0c-2,0.2-4.1,0.3-6.1,0.3C76.6,177.2,75.1,177.1,73.6,177z" fill="#F4D35E"/></g></svg>